<?xml version="1.0" encoding="UTF-8" standalone="no"?>
<svg
   xmlns:dc="http://purl.org/dc/elements/1.1/"
   xmlns:cc="http://creativecommons.org/ns#"
   xmlns:rdf="http://www.w3.org/1999/02/22-rdf-syntax-ns#"
   xmlns:svg="http://www.w3.org/2000/svg"
   xmlns="http://www.w3.org/2000/svg"
   xmlns:xlink="http://www.w3.org/1999/xlink"
   xmlns:sodipodi="http://sodipodi.sourceforge.net/DTD/sodipodi-0.dtd"
   xmlns:inkscape="http://www.inkscape.org/namespaces/inkscape"
   width="32"
   height="32"
   version="1.1"
   id="svg2032"
   sodipodi:docname="chariot_RVB_ICO.svg"
   inkscape:version="1.0.1 (3bc2e813f5, 2020-09-07)">
  <style
     id="style2601"></style>
  <metadata
     id="metadata2038">
    <rdf:RDF>
      <cc:Work
         rdf:about="">
        <dc:format>image/svg+xml</dc:format>
        <dc:type
           rdf:resource="http://purl.org/dc/dcmitype/StillImage" />
        <dc:title></dc:title>
      </cc:Work>
    </rdf:RDF>
  </metadata>
  <defs
     id="defs2036">
    <linearGradient
       inkscape:collect="always"
       id="linearGradient2607-1">
      <stop
         style="stop-color:#e88b04;stop-opacity:1"
         offset="0"
         id="stop2603" />
      <stop
         style="stop-color:#8f5bfe;stop-opacity:1"
         offset="1"
         id="stop2605" />
    </linearGradient>
    <linearGradient
       inkscape:collect="always"
       xlink:href="#linearGradient2607-1"
       id="linearGradient2609"
       x1="308"
       y1="102"
       x2="461.92834"
       y2="165.75865"
       gradientUnits="userSpaceOnUse"
       gradientTransform="matrix(0.15248188,0,0,0.15248188,-41.952855,-9.8456803)" />
  </defs>
  <sodipodi:namedview
     pagecolor="#ffffff"
     bordercolor="#666666"
     borderopacity="1"
     objecttolerance="10"
     gridtolerance="10"
     guidetolerance="10"
     inkscape:pageopacity="0"
     inkscape:pageshadow="2"
     inkscape:window-width="1920"
     inkscape:window-height="1017"
     id="namedview2034"
     showgrid="false"
     inkscape:zoom="18.143781"
     inkscape:cx="17.337358"
     inkscape:cy="18.299108"
     inkscape:window-x="317"
     inkscape:window-y="1432"
     inkscape:window-maximized="1"
     inkscape:current-layer="svg2032"
     inkscape:document-rotation="0" />
  <path
     style="fill:url(#linearGradient2609);fill-opacity:1;stroke:none;stroke-width:0.152482"
     d="m 3.3342652,3.8776887 0.0677,0.228723 0.034,0.08472 0.0974,0.296485 0.0465,0.152482 0.0805,0.304964 0.0381,0.152482 0.0465,0.152482 0.0933,0.304964 0.0465,0.152482 0.0805,0.304963 0.0381,0.152482 0.0465,0.152482 0.0933,0.304964 0.0465,0.152482 0.0805,0.304963 0.0381,0.152482 0.0465,0.152482 0.0933,0.304964 0.0465,0.152482 0.0381,0.152482 0.0805,0.304963 0.0465,0.152482 0.0467,0.152482 0.0508,0.152482 0.10171,0.304964 0.0466,0.152482 0.0465,0.1524816 0.0805,0.304963 0.0381,0.152482 0.0465,0.152482 0.0933,0.3049637 0.0465,0.152482 0.0805,0.304964 0.0381,0.152481 0.0465,0.152482 0.0933,0.304964 0.0465,0.152482 0.0805,0.304964 0.0381,0.152482 0.0465,0.152481 0.0933,0.304964 0.0465,0.152482 0.0381,0.152482 0.0805,0.304964 0.0465,0.152482 0.0933,0.304963 0.0465,0.152482 0.0381,0.152482 0.0805,0.304964 0.0465,0.152482 0.0933,0.304964 0.0465,0.152481 0.0381,0.152482 0.0805,0.304964 0.0465,0.152482 0.0467,0.152482 0.1017,0.304964 0.0508,0.152482 0.0467,0.152482 0.0465,0.152481 0.0805,0.304964 0.0381,0.152482 0.0465,0.152482 0.0933,0.304964 0.0465,0.152482 0.0381,0.152481 0.0805,0.304964 0.0932,0.304964 0.0932,0.304964 0.0805,0.304963 0.0381,0.152482 0.0465,0.152482 0.0467,0.152482 0.0889,0.304964 0.0255,0.152482 0.0127,0.152482 -0.0465,0.304963 -0.11863,0.304964 -0.0762,0.152482 -0.13129,0.304964 -0.11863,0.304964 -0.0636,0.152481 -0.12275,0.304964 -0.11863,0.304964 -0.13129,0.304964 -0.0762,0.152482 -0.13129,0.304963 -0.11863,0.304964 -0.0636,0.152482 -0.12275,0.304964 -0.11863,0.304964 -0.13129,0.304963 -0.0762,0.143943 -0.0636,0.152482 -0.0508,0.08478 -0.0762,0.228723 0.22872,-0.01266 0.0848,-0.02119 0.15248,-0.02547 0.29643,-0.06358 0.30069,-0.07624 0.13983,-0.06343 0.12275,-0.09317 0.18648,-0.258457 0.0677,-0.148213 0.0679,-0.152481 0.0592,-0.152482 0.0636,-0.152482 0.11863,-0.304964 0.12274,-0.304964 0.0636,-0.152482 0.11863,-0.304963 0.13129,-0.304964 0.0762,-0.152482 0.13128,-0.304964 0.11864,-0.304964 0.12274,-0.304963 0.0636,-0.152482 0.11863,-0.304964 0.0636,-0.143943 0.0592,-0.152482 0.0467,-0.08478 0.0762,-0.228722 h 14.4857798 3.65956 0.45745 0.15248 l 0.30496,-0.0043 0.15248,-0.0084 0.30497,-0.06359 0.14821,-0.0677 0.1441,-0.08478 0.24138,-0.241379 0.15248,-0.292308 0.0424,-0.152482 0.0338,-0.152482 0.0593,-0.304963 0.0339,-0.152482 0.0593,-0.304964 0.0593,-0.304964 0.0381,-0.152482 0.0338,-0.152482 0.0424,-0.152481 0.072,-0.304964 0.0297,-0.152482 0.0592,-0.304964 0.0297,-0.152482 0.0636,-0.304963 0.0592,-0.304964 0.0297,-0.152482 0.072,-0.304964 0.0424,-0.152482 0.0338,-0.152482 0.0381,-0.152482 0.0297,-0.152482 0.0592,-0.304963 0.0636,-0.304964 0.0593,-0.304964 0.0593,-0.304964 0.0381,-0.152481 0.0339,-0.152482 0.0424,-0.152482 0.072,-0.304964 0.0593,-0.304964 0.0593,-0.304964 0.0636,-0.304963 0.0592,-0.304964 0.0297,-0.152482 0.072,-0.304964 0.0424,-0.152482 0.0339,-0.152481 0.0381,-0.152482 0.0297,-0.152482 0.0592,-0.304964 0.0636,-0.3049637 0.0593,-0.304964 0.0593,-0.3049626 0.0381,-0.152482 0.0339,-0.152482 0.0424,-0.152482 0.072,-0.304964 0.0297,-0.152482 0.0592,-0.304963 0.0636,-0.304964 0.0593,-0.304964 0.0593,-0.304964 0.0338,-0.152481 0.0467,-0.304964 0.008,-0.143943 0.004,-0.152482 v -0.313503 l -0.22872,-0.148212 -0.23726,-0.08905 -0.29643,-0.05504 -0.30496,-0.01266 h -0.30497 -0.15248 -0.30496 -0.76241 -5.18439 -19.2127098 l -0.0127,-0.228723 -0.0509,-0.237201 -0.0422,-0.144004 -0.0933,-0.304964 -0.0465,-0.152482 -0.0381,-0.152482 -0.0805,-0.304963 -0.0932,-0.304964 -0.0508,-0.152482 -0.10597,-0.304964 -0.0593,-0.148243 -0.16513,-0.262619 -0.24138,-0.182125 -0.1441,-0.0593 -0.14821,-0.04658 -0.30496,-0.05084 -0.30497,-0.0127 h -0.15248 -0.30496 -0.76241 -0.30497 l -0.30496,0.0042 -0.15248,0.0085 -0.30497001,0.05084 -0.15248,0.04658 -0.28803998,0.13978 -0.21179,0.224484 -0.0889,0.288023 0.0169,0.300725 0.0381,0.144019 0.15248,0.241425 0.24138,0.152482 0.29229998,0.0593 0.15249,-0.0042 0.15248001,-0.02964 0.15248,-0.05506 0.15248,-0.08048 0.30497,-0.165199 0.15248,-0.05506 0.15248,-0.03388 0.15248,-0.0127 0.30497,-0.0042 h 0.30496 0.60993 m 3.50708,20.9536023 -0.30496,0.09317 -0.30497,0.131287 -0.14821,0.08051 -0.1441,0.09317 -0.25403,0.211797 -0.2118,0.254035 -0.0974,0.144095 -0.0848,0.148213 -0.14822,0.304964 -0.0593,0.152481 -0.0339,0.152482 -0.0255,0.152482 -0.0127,0.304964 v 0.152482 l 0.0127,0.304964 0.0255,0.152481 0.0339,0.152482 0.0593,0.152482 0.15249,0.304964 0.0932,0.152482 0.24565,0.292308 0.29231,0.245648 0.30496,0.182063 0.30497,0.122901 0.30496,0.05931 0.30496,0.01266 h 0.30497 l 0.30496,-0.01266 0.30496,-0.05931 0.15249,-0.05932 0.15248,-0.06358 0.30496,-0.182063 0.14821,-0.118631 0.1441,-0.127017 0.24565,-0.292308 0.18206,-0.304964 0.0636,-0.152482 0.0593,-0.152482 0.0339,-0.152482 0.0255,-0.152481 0.0127,-0.304964 v -0.152482 l -0.0127,-0.304964 -0.0255,-0.152482 -0.0339,-0.152482 -0.0593,-0.152481 -0.14822,-0.304964 -0.0848,-0.148213 -0.0974,-0.144095 -0.2118,-0.254035 -0.25403,-0.211797 -0.1441,-0.09317 -0.14821,-0.08051 -0.30497,-0.131287 -0.30496,-0.09317 -0.30496,-0.05093 h -0.30497 l -0.30496,0.05093 m 18.6027898,-0.0043 -0.15248,0.03812 -0.30497,0.0889 -0.15248,0.05931 -0.15248,0.07624 -0.30069,0.199141 -0.1441,0.122748 -0.24565,0.275383 -0.0932,0.148212 -0.0889,0.152482 -0.1229,0.304964 -0.072,0.304963 -0.0467,0.304964 -0.0127,0.152482 v 0.152482 l 0.0339,0.304964 0.0593,0.304963 0.0424,0.152482 0.13982,0.304964 0.0932,0.148212 0.10155,0.144096 0.233,0.254035 0.27538,0.211797 0.14821,0.09317 0.30496,0.139826 0.15249,0.03812 0.30496,0.03385 0.15248,0.0043 h 0.30496 0.15249 l 0.30496,-0.01266 0.15248,-0.02546 0.15248,-0.03385 0.30497,-0.122901 0.30069,-0.182063 0.1441,-0.118631 0.24565,-0.271113 0.0932,-0.148212 0.0889,-0.152482 0.13556,-0.304964 0.055,-0.152482 0.0509,-0.152482 0.0422,-0.152481 0.0467,-0.304964 v -0.152482 l -0.0424,-0.304964 -0.0381,-0.152482 -0.0805,-0.304963 -0.0465,-0.152482 -0.15675,-0.304964 -0.11436,-0.152482 -0.12702,-0.148212 -0.1441,-0.144096 -0.30069,-0.241379 -0.30496,-0.165137 -0.15249,-0.05932 -0.30496,-0.09317 -0.30496,-0.05093 -0.15249,-0.0041 -0.15248,0.0041 -0.30496,0.04666 m -16.0105998,0.39813 0.0424,0.228723 0.0889,0.237262 0.0593,0.143943 0.0762,0.143943 0.0636,0.152482 0.0508,0.08478 0.0762,0.228722 H 23.155965 l 0.15248,-0.228722 0.0381,-0.08478 0.0932,-0.152482 0.16514,-0.287886 0.0552,-0.08478 0.10582,-0.228723 -0.22872,-0.110092 -0.0848,-0.0043 -0.15249,-0.02958 -0.14394,-0.0043 -0.30496,-0.0043 h -0.30497 -0.60992 -2.74468 z"
     id="path2028" />
  <path
     style="fill:#bcbcbc;stroke:none"
     d="m 459,239 1,1 z"
     id="path2030" />
</svg>
