<?xml version="1.0" encoding="UTF-8" standalone="no"?>
<svg
   xmlns:dc="http://purl.org/dc/elements/1.1/"
   xmlns:cc="http://creativecommons.org/ns#"
   xmlns:rdf="http://www.w3.org/1999/02/22-rdf-syntax-ns#"
   xmlns:svg="http://www.w3.org/2000/svg"
   xmlns="http://www.w3.org/2000/svg"
   xmlns:sodipodi="http://sodipodi.sourceforge.net/DTD/sodipodi-0.dtd"
   xmlns:inkscape="http://www.inkscape.org/namespaces/inkscape"
   width="210"
   height="175"
   version="1.1"
   id="svg6"
   sodipodi:docname="logo_NB.svg"
   inkscape:version="1.0.1 (3bc2e813f5, 2020-09-07)">
  <style
     id="style837"></style>
  <metadata
     id="metadata12">
    <rdf:RDF>
      <cc:Work
         rdf:about="">
        <dc:format>image/svg+xml</dc:format>
        <dc:type
           rdf:resource="http://purl.org/dc/dcmitype/StillImage" />
        <dc:title></dc:title>
      </cc:Work>
    </rdf:RDF>
  </metadata>
  <defs
     id="defs10" />
  <sodipodi:namedview
     pagecolor="#ffffff"
     bordercolor="#666666"
     borderopacity="1"
     objecttolerance="10"
     gridtolerance="10"
     guidetolerance="10"
     inkscape:pageopacity="0"
     inkscape:pageshadow="2"
     inkscape:window-width="2560"
     inkscape:window-height="1377"
     id="namedview8"
     showgrid="false"
     inkscape:zoom="1.6036988"
     inkscape:cx="378.5"
     inkscape:cy="170.5"
     inkscape:window-x="-8"
     inkscape:window-y="-8"
     inkscape:window-maximized="1"
     inkscape:current-layer="svg6" />
  <path
     style="fill:#000000;stroke:none"
     d="m 21.9305,8 0.444,1.5 0.223,0.5556 0.639,1.9444 0.305,1 0.528,2 0.25,1 0.305,1 0.612,2 0.305,1 0.528,2 0.25,1 0.305,1 0.612,2 0.305,1 0.528,2 0.25,1 0.305,1 0.612,2 0.305,1 0.25,1 0.528,2 0.305,1 0.306,1 0.333,1 0.667,2 0.306,1 0.305,1 0.528,2 0.25,1 0.305,1 0.612,2 0.305,1 0.528,2 0.25,1 0.305,1 0.612,2 0.305,1 0.528,2 0.25,1 0.305,1 0.612,2 0.305,1 0.25,1 0.528,2 0.305,1 0.612,2 0.305,1 0.25,1 0.528,2 0.305,1 0.612,2 0.305,1 0.25,1 0.528,2 0.305,1 0.306,1 0.667,2 0.333,1 0.306,1 0.305,1 0.528,2 0.25,1 0.305,1 0.612,2 0.305,1 0.25,1 0.528,2 0.611,2 0.611,2 0.528,2 0.25,1 0.305,1 0.306,1 0.583,2 0.167,1 0.083,1 -0.305,2 -0.778,2 -0.5,1 -0.861,2 -0.778,2 -0.417,1 -0.805,2 -0.778,2 -0.861,2 -0.5,1 -0.861,2 -0.778,2 -0.417,1 -0.805,2 -0.778,2 -0.861,2 -0.5,0.944 -0.417,1 -0.333,0.556 -0.5,1.5 1.5,-0.083 0.556,-0.139 1,-0.167 1.944,-0.417 1.972,-0.5 0.917,-0.416 0.805,-0.611 1.223,-1.695 0.444,-0.972 0.445,-1 0.388,-1 0.417,-1 0.778,-2 0.805,-2 0.417,-1 0.778,-2 0.861,-2 0.5,-1 0.861,-2 0.778,-2 0.805,-2 0.417,-1 0.778,-2 0.417,-0.944 0.388,-1 0.306,-0.556 0.5,-1.5 h 95 24 3 1 l 2,-0.028 1,-0.055 2,-0.417 0.972,-0.444 0.945,-0.556 1.583,-1.583 1,-1.917 0.278,-1 0.222,-1 0.389,-2 0.222,-1 0.389,-2 0.389,-2 0.25,-1 0.222,-1 0.278,-1 0.472,-2 0.195,-1 0.388,-2 0.195,-1 0.417,-2 0.388,-2 0.195,-1 0.472,-2 0.278,-1 0.222,-1 0.25,-1 0.195,-1 0.388,-2 0.417,-2 0.389,-2 0.389,-2 0.25,-1 0.222,-1 0.278,-1 0.472,-2 0.389,-2 0.389,-2 0.417,-2 0.388,-2 0.195,-1 0.472,-2 0.278,-1 0.222,-1 0.25,-1 0.195,-1 0.388,-2 0.417,-2 0.389,-2 0.389,-2 0.25,-1 0.222,-1 0.278,-1 0.472,-2 0.195,-1 0.388,-2 0.417,-2 0.389,-2 0.389,-2 0.222,-1 0.306,-2 0.055,-0.944 0.028,-1 V 22 l -1.5,-0.972 -1.556,-0.584 -1.944,-0.361 -2,-0.083 h -2 -1 -2 -5 -34 -126 l -0.083,-1.5 -0.334,-1.5556 -0.277,-0.9444 -0.612,-2 -0.305,-1 -0.25,-1 -0.528,-2 -0.611,-2 -0.333,-1 -0.695,-2 -0.389,-0.9722 -1.083,-1.7223 -1.583,-1.1944 -0.945,-0.3889 -0.972,-0.3055 -2,-0.3334 -2,-0.0833 h -1 -2 -5 -2 l -2,0.0278 -1,0.0555 -2,0.3334 -1,0.3055 L 2.0415,1.6389 0.6525,3.1111 0.0695,5 l 0.111,1.9722 0.25,0.9445 1,1.5833 1.583,1 1.917,0.3889 1,-0.0278 1,-0.1944 1,-0.3611 1,-0.5278 2,-1.0834 1,-0.3611 1,-0.2222 1,-0.0833 2,-0.0278 h 2 4 m 23,137.417 -2,0.611 -2,0.861 -0.972,0.528 -0.945,0.611 -1.666,1.389 -1.389,1.666 -0.639,0.945 -0.556,0.972 -0.972,2 -0.389,1 -0.222,1 -0.167,1 -0.083,2 v 1 l 0.083,2 0.167,1 0.222,1 0.389,1 1,2 0.611,1 1.611,1.917 1.917,1.611 2,1.194 2,0.806 2,0.389 2,0.083 h 2 l 2,-0.083 2,-0.389 1,-0.389 1,-0.417 2,-1.194 0.972,-0.778 0.945,-0.833 1.611,-1.917 1.194,-2 0.417,-1 0.389,-1 0.222,-1 0.167,-1 0.083,-2 v -1 l -0.083,-2 -0.167,-1 -0.222,-1 -0.389,-1 -0.972,-2 -0.556,-0.972 -0.639,-0.945 -1.389,-1.666 -1.666,-1.389 -0.945,-0.611 -0.972,-0.528 -2,-0.861 -2,-0.611 -2,-0.334 h -2 l -2,0.334 m 122,-0.028 -1,0.25 -2,0.583 -1,0.389 -1,0.5 -1.972,1.306 -0.945,0.805 -1.611,1.806 -0.611,0.972 -0.583,1 -0.806,2 -0.472,2 -0.306,2 -0.083,1 v 1 l 0.222,2 0.389,2 0.278,1 0.917,2 0.611,0.972 0.666,0.945 1.528,1.666 1.806,1.389 0.972,0.611 2,0.917 1,0.25 2,0.222 1,0.028 h 2 1 l 2,-0.083 1,-0.167 1,-0.222 2,-0.806 1.972,-1.194 0.945,-0.778 1.611,-1.778 0.611,-0.972 0.583,-1 0.889,-2 0.361,-1 0.334,-1 0.277,-1 0.306,-2 v -1 l -0.278,-2 -0.25,-1 -0.528,-2 -0.305,-1 -1.028,-2 -0.75,-1 -0.833,-0.972 -0.945,-0.945 -1.972,-1.583 -2,-1.083 -1,-0.389 -2,-0.611 -2,-0.334 -1,-0.027 -1,0.027 -2,0.306 m -105,2.611 0.278,1.5 0.583,1.556 0.389,0.944 0.5,0.944 0.417,1 0.333,0.556 0.5,1.5 h 87 l 1,-1.5 0.25,-0.556 0.611,-1 1.083,-1.888 0.362,-0.556 0.694,-1.5 -1.5,-0.722 -0.556,-0.028 -1,-0.194 -0.944,-0.028 -2,-0.028 h -2 -4 -18 z"
     id="path2" />
  <path
     style="fill:#bcbcbc;stroke:none"
     d="m 459,239 1,1 z"
     id="path4" />
</svg>
