<?xml version="1.0" encoding="UTF-8" standalone="no"?>
<svg
   xmlns:dc="http://purl.org/dc/elements/1.1/"
   xmlns:cc="http://creativecommons.org/ns#"
   xmlns:rdf="http://www.w3.org/1999/02/22-rdf-syntax-ns#"
   xmlns:svg="http://www.w3.org/2000/svg"
   xmlns="http://www.w3.org/2000/svg"
   xmlns:sodipodi="http://sodipodi.sourceforge.net/DTD/sodipodi-0.dtd"
   xmlns:inkscape="http://www.inkscape.org/namespaces/inkscape"
   width="480"
   height="115"
   version="1.1"
   id="svg4"
   sodipodi:docname="orinoco.svg"
   inkscape:version="1.0.1 (3bc2e813f5, 2020-09-07)">
  <style
     id="style835"></style>
  <metadata
     id="metadata10">
    <rdf:RDF>
      <cc:Work
         rdf:about="">
        <dc:format>image/svg+xml</dc:format>
        <dc:type
           rdf:resource="http://purl.org/dc/dcmitype/StillImage" />
        <dc:title></dc:title>
      </cc:Work>
    </rdf:RDF>
  </metadata>
  <defs
     id="defs8" />
  <sodipodi:namedview
     pagecolor="#ffffff"
     bordercolor="#666666"
     borderopacity="1"
     objecttolerance="10"
     gridtolerance="10"
     guidetolerance="10"
     inkscape:pageopacity="0"
     inkscape:pageshadow="2"
     inkscape:window-width="2560"
     inkscape:window-height="1377"
     id="namedview6"
     showgrid="false"
     inkscape:zoom="1.6036988"
     inkscape:cx="378.5"
     inkscape:cy="119.37172"
     inkscape:window-x="-8"
     inkscape:window-y="-8"
     inkscape:window-maximized="1"
     inkscape:current-layer="svg4" />
  <path
     style="fill:#261624;stroke:none"
     d="M 42.086436,0.25511223 C 12.038436,4.6251102 -1.7465644,34.38611 0.17643561,61.81211 c 1.56799999,22.38 16.93500039,42.232 40.91000039,38.699 19.441,-2.865 37.027,-21.733 40.536,-40.699 1.601,-8.651 0.256,-16.556 -1.648,-25 -1.377,-6.108 -1.308,-12.302 -4.291,-17.999 -5.644,-10.7839998 -21.508,-18.3169978 -33.597,-16.55799777 m -5,8.55699797 c -3.697,3.7359998 -8.83,5.4659998 -13,8.6809998 -4.4,3.391 -7.712,7.862 -12,11.319 2.138,-11.984 13.469,-18.9929998 25,-19.9999998 M 161.08644,43.81211 c 11.192,-2.36 15.966,-17.981 16,-28 -1.952,-0.511 -2.457,-0.733 -4,-2 -12.355,4.236 -12,19.214 -12,30 M 42.086436,15.43711 c 12.236,0.222 17.405,11.228 20.656,21.375 3.471,10.833 6.545,29.266 -2.075,38.671 -3.197,3.487 -8.142,5.009 -12.581,6.173 -2.944,0.772 -5.946,1.263 -9,1.108 -8.846,-0.447 -13.779,-9.406 -16.251,-16.952 -5.534,-16.893 -6.141,-50.835 19.251,-50.375 m 356.000004,13.375 c -2.912,2.263 -5.645,6.038 -9.089,7.397 -5.974,2.356 -13.638,0.855 -19.911,2.643 -15.21,4.336 -31.92,16.935 -36.069,32.96 -4.074,15.74 17.431,34.401 32.069,34.867 4.982,0.158 9.797,-2.314 14,-4.743 10.218,-5.905 21.351,-14.034 26,-25.124 -4.44,1.243 -7.204,4.404 -11,6.892 -6.714,4.4 -16.887,8.071 -25,6.637 -7.96,-1.408 -12.967,-6.448 -17.799,-12.529 -2.005,-2.522 -5.011,-5.478 -4.351,-9 1.458,-7.774 14.308,-17.046 21.15,-19.914 5.673,-2.379 15.156,-0.562 17.358,5.929 1.168,3.445 -0.48,7.491 -0.248,11.055 0.199,3.065 1.801,5.073 4.905,3.268 5.367,-3.121 4.391,-7.201 5.267,-12.338 1.545,-9.067 6.608,-18.73 2.718,-28 m -205,75 c 3.281,-1.106 5.415,-2.693 8,-5 0.841,2.467 1.778,4.699 3,7 3.284,-1.709 7.113,-4.094 8.048,-8.001 0.768,-3.207 -1.374,-6.938 -2.152,-9.999 -1.278,-5.024 -1.571,-9.883 -2.066,-15 -0.333,-3.447 -1.686,-7.556 0.198,-10.79 2.908,-4.994 13.492,-9.84 18.929,-7.027 3.393,1.755 5.224,5.489 6.73,8.817 3.185,7.038 4.238,15.352 2.988,23 -0.838,5.125 -3.158,9.812 -3.675,15 l 5,-1.999998 -1,3.999998 c 4.519,-1.269 10.628,-5.558 12.382,-10.17 1.262,-3.317 -0.416,-7.429 -0.622,-10.83 -0.424,-6.989 -0.256,-13.981 -0.735,-21 -0.395,-5.783 -0.562,-16.604 -6.239,-19.972 -10.936,-6.489 -25.498,5.513 -33.786,10.972 v -11 c -2.827,0.941 -4.673,2.123 -7,4 v -11 c -9.521,4.453 -9.889,13.651 -10.004,23 -0.058,4.7 -1.139,9.29 -0.956,14 0.417,10.697 2.501,21.319 2.96,32 m -84,-48 v -9 c -1.416,0.472 -1.814,0.814 -3,2 v -4 l -5,4 c -0.251,-1.452 -0.315,-1.752 -1,-3 -16.341004,11.763 -9.302004,29.359 -7.285004,46 0.54,4.462 -0.573,15.162 3.027,18.338 2.837,2.502 6.351004,-1.581 8.258004,-3.338 0.447,2.467 0.969,5.761 3.394,7.168 3.877,2.248 8.385,-3.745 8.803,-7.078 0.413,-3.298 -1.329,-6.924998 -2.003,-10.091 -0.707,-3.32 -0.375,-6.703 -1.248,-9.999 -1.419,-5.358 -4.426,-11.262 -3.758,-16.96 0.477,-4.076 4.3,-6.178 7.812,-7.481 9.771,-3.623 17.418,0.071 24,7.441 h 2 c 1.794,-3.749 2.86,-6.704 7,-8 -0.642,-3.306 -1.013,-7.06 -2.857,-9.957 -9.79,-15.379 -28.639,-5.133 -38.143,3.957 m 177,-11.362 c -17.976,5.138 -35.012,32.445 -25.597,50.358 6.542,12.448 20.102,14.004 32.597,14.004 3.878,0 8.25,0.521 12,-0.653 3.852,-1.206 6.998,-4.203 10,-6.775 6.68,-5.722 12.751,-14.32 12.816,-23.572 0.143,-20.113 -21.952,-39.039 -41.816,-33.362 m 152,-0.105 c -4.927,1.15 -9.233,4.579 -12.911,7.906 -11.538,10.44 -21.765,29.673 -12.119,44.557 8.091,12.485 29.59,14.972 43.03,11.446 4.408,-1.156 7.693,-4.322 10.985,-7.287 6.692,-6.027 11.75,-13.821 11.96,-23.155 0.459,-20.367 -21.093,-38.1 -40.945,-33.467 m -268,0.467 c -3.757,2.906 -7.845,5.453 -9.772,10.004 -2.69,6.353 -1.026,14.394 -0.398,20.996 1.007,10.578 1.332,21.377 2.17,32 1.952,0.511 2.457,0.733 4,2 4.774,-1.605 10.223,-3.863 12.103,-9.004 1.89,-5.167 -1.359,-12.674 -1.937,-17.996 -1.36,-12.511 -1.153,-24.494 -0.166,-37 -2.42,0.16 -3.802,0.009 -6,-1 m 113,13.344 c 10.906,-1.277 22.242,6.73 28.772,14.656 6.532,7.927 3.685,16.328 -5.772,19.64 -2.894,1.014 -5.946,1.858 -9,2.186 -8.617,0.926 -19.639,0.145 -24.853,-7.869 -5.981,-9.193 -1.158,-27.206 10.853,-28.613 m 151,-0.025 c 10.102,-1.38 22.427,6.208 28.521,13.696 6.506,7.995 5.369,16.597 -4.521,20.52 -2.553,1.013 -5.28,1.773 -8,2.165 -9.089,1.31 -20.65,0.564 -26.297,-7.715 -6.102,-8.946 -1.383,-27.07 10.297,-28.666 m -361.000004,6.681 c -3.765,18.194 -15.856,27 -34,27 5.096,-3.813 11.83,-4.592 17,-8.532 6.904,-5.262 11.015,-12.57 17,-18.468 m 243.000004,30 c -1.703,3.108 -3.82,4.472002 -7,6 1.755,-2.895 4.061,-4.345 7,-6 m 152,0 c -2.047,2.764 -3.948,4.412 -7,6 1.704,-3.155 3.714,-4.595 7,-6 z"
     id="path2" />
</svg>
